<svg xmlns="http://www.w3.org/2000/svg" id="Layer_1" version="1.1" xml:space="preserve" viewBox="0 0 64 64" width="64" height="64"><path id="Fill-52" d="M32 55.9C18.8 55.9 8.1 45.2 8.1 32S18.8 8.1 32 8.1 55.9 18.8 55.9 32c0 13.1-10.7 23.9-23.9 23.9zm0-45.3c-11.7 0-21.3 9.6-21.3 21.3 0 11.7 9.6 21.3 21.3 21.3 11.7 0 21.3-9.6 21.3-21.3 0-11.7-9.6-21.3-21.3-21.3z" /><path d="M21.6 44.2l-1.9-1.9 22.6-22.6 1.9 1.9-22.6 22.6" id="Fill-53" /><path d="M42.3 44.2L19.7 21.6l1.9-1.9 22.6 22.6-1.9 1.9" id="Fill-54" /></svg>