<svg xmlns="http://www.w3.org/2000/svg" viewBox="0 0 64 64" height="64" width="64"><path fill="none" d="M0 32h32v32H0z"/><path d="M20.263 42.06v-5.03l5.03 5.03z"/><path stroke-width=".838" stroke="#000" d="M43.737 23.616L26.97 40.383l-5.03-5.03 16.767-16.767z"/><path d="M20.263 45.414v-1.677h18.444v1.677z"/><path d="M32 55.9C18.8 55.9 8.1 45.2 8.1 32S18.8 8.1 32 8.1 55.9 18.8 55.9 32c0 13.1-10.7 23.9-23.9 23.9zm0-45.3c-11.7 0-21.3 9.6-21.3 21.3 0 11.7 9.6 21.3 21.3 21.3 11.7 0 21.3-9.6 21.3-21.3 0-11.7-9.6-21.3-21.3-21.3z" class="st0"/></svg>