<svg xmlns="http://www.w3.org/2000/svg" viewBox="0 0 64 64" height="64" width="64"><path d="M32 55.9C18.8 55.9 8.1 45.2 8.1 32S18.8 8.1 32 8.1 55.9 18.8 55.9 32c0 13.1-10.7 23.9-23.9 23.9zm0-45.3c-11.7 0-21.3 9.6-21.3 21.3 0 11.7 9.6 21.3 21.3 21.3 11.7 0 21.3-9.6 21.3-21.3 0-11.7-9.6-21.3-21.3-21.3z" class="st0"/><g stroke-width=".089"><path d="M22.31 19.506l1.84-1.724L39.37 32 24.15 46.218l-1.84-1.715L35.683 32z"/><path d="M29.157 19.506l1.84-1.724L46.218 32 30.997 46.218l-1.84-1.715L42.531 32z"/></g></svg>