<svg xmlns="http://www.w3.org/2000/svg" viewBox="0 0 512 512" height="512" width="512"><path d="M197.951 64c-10.9 0-19.8 9-19.8 20h-.1v35.857l184.928 110.067c7.45 6.321 12.19 15.578 12.19 26.076a33.84 33.84 0 0 1-12.19 26.076L178.05 392.13V428h.1c0 11 8.9 20 19.8 20 4.1 0 7.5-1.4 11.2-3.4l278.1-165.5c6.6-5.5 10.8-13.8 10.8-23.1s-4.2-17.5-10.8-23.1L208.852 67.2c-3.4-2-6.9-3.2-10.9-3.2z"/><path d="M323.15 232.9L44.75 67.2c-3.4-2-6.9-3.2-10.9-3.2-10.9 0-19.8 9-19.8 20h-.1v344h.1c0 11 8.9 20 19.8 20 4.1 0 7.5-1.4 11.2-3.4l278.1-165.5c6.6-5.5 10.8-13.8 10.8-23.1s-4.2-17.5-10.8-23.1z"/></svg>