<?xml version="1.0" encoding="UTF-8"?><!DOCTYPE svg PUBLIC "-//W3C//DTD SVG 1.1//EN" "http://www.w3.org/Graphics/SVG/1.1/DTD/svg11.dtd"><svg xmlns="http://www.w3.org/2000/svg" xmlns:xlink="http://www.w3.org/1999/xlink"><defs/><symbol id="clear-all" viewBox="0 0 64 64"><style>.st0{fill:#134563}</style><g id="Icon-Close-O" transform="translate(378 278)"><path class="st0" d="M-345.9-222.1c-13.2 0-23.9-10.7-23.9-23.9s10.7-23.9 23.9-23.9S-322-259.2-322-246c0 13.1-10.7 23.9-23.9 23.9zm0-45.3c-11.7 0-21.3 9.6-21.3 21.3 0 11.7 9.6 21.3 21.3 21.3s21.3-9.6 21.3-21.3c0-11.7-9.6-21.3-21.3-21.3z" id="Fill-52"/><path class="st0" id="Fill-53" d="M-356.3-233.8l-1.9-1.9 22.6-22.6 1.9 1.9-22.6 22.6"/><path class="st0" id="Fill-54" d="M-335.6-233.8l-22.6-22.6 1.9-1.9 22.6 22.6-1.9 1.9"/></g></symbol><symbol id="edit-canvas"><path d="M37 48H0V4h29a1 1 0 0 1 0 2H2v40h33V24a1 1 0 0 1 2 0v24z"/><path d="M21.637 27.363a1 1 0 0 1-.896-1.447l2.828-5.657a.98.98 0 0 1 .188-.26L42.85.907C43.443.313 44.166 0 44.939 0c1.213 0 2.354.784 2.837 1.95.461 1.114.206 2.31-.683 3.199L28.001 24.241a1.028 1.028 0 0 1-.26.188l-5.657 2.829a.997.997 0 0 1-.447.105zm3.65-6.065l-1.414 2.829 2.829-1.415L45.679 3.735c.315-.315.399-.658.25-1.02-.17-.407-.595-.715-.99-.715-.235 0-.462.108-.675.321L25.287 21.298z"/><path d="M43.557 8.271c-.256 0-.512-.098-.708-.293l-2.828-2.829a1.002 1.002 0 0 1 0-1.415 1.002 1.002 0 0 1 1.415 0l2.828 2.829a1.002 1.002 0 0 1-.707 1.708z"/></symbol><symbol id="play-auto"><path d="M92.746 396.7l150.5-140.7-150.5-140.6 20.7-19.4 171.3 160-171.3 160z"/><path d="M247.954 416l-20.7-19.3 150.5-140.7-150.5-140.6 20.7-19.4 171.3 160z"/></symbol><symbol id="play"><path d="M160 115.4L180.7 96 352 256 180.7 416 160 396.7 310.5 256z"/></symbol></svg>