<?xml version="1.0" encoding="UTF-8"?><!DOCTYPE svg PUBLIC "-//W3C//DTD SVG 1.1//EN" "http://www.w3.org/Graphics/SVG/1.1/DTD/svg11.dtd"><svg xmlns="http://www.w3.org/2000/svg" xmlns:xlink="http://www.w3.org/1999/xlink"><defs><marker orient="auto" refY="0" refX="0" id="a" overflow="visible"><path d="M4.616 0l-6.92 4v-8z" fill="#000" fill-opacity="1" fill-rule="evenodd" stroke="#000" stroke-width="1.066" stroke-opacity="1"/></marker><marker orient="auto" refY="0" refX="0" id="a" overflow="visible"><path d="M4.616 0l-6.92 4v-8z" fill="#000" fill-opacity="1" fill-rule="evenodd" stroke="#000" stroke-width="1.066" stroke-opacity="1"/></marker><marker orient="auto" refY="0" refX="0" overflow="visible"><path d="M-10.69-4.437L1.328-.017-10.69 4.401c1.92-2.61 1.909-6.18 0-8.84z" fill="#000" fill-opacity="1" fill-rule="evenodd" stroke="#000" stroke-width=".6875" stroke-linejoin="round" stroke-opacity="1"/></marker><marker orient="auto" refY="0" refX="0" id="a" overflow="visible"><path d="M4.616 0l-6.92 4v-8z" fill="#000" fill-opacity="1" fill-rule="evenodd" stroke="#000" stroke-width="1.0664" stroke-opacity="1"/></marker><marker orient="auto" refY="0" refX="0" overflow="visible"><path d="M5.6-5.657L-.057 0 5.6 5.657 11.257 0z" fill="#000" fill-opacity="1" fill-rule="evenodd" stroke="#000" stroke-width="1.0664" stroke-opacity="1"/></marker><marker orient="auto" refY="0" refX="0" overflow="visible"><path d="M-10 0l-4 4L0 0l-14-4z" fill="#000" fill-opacity="1" fill-rule="evenodd" stroke="#000" stroke-width="1.0664" stroke-opacity="1"/></marker>
    <marker inkscape:stockid="Arrow2Lend" orient="auto" refY="0" refX="0" id="Arrow2Lend" style="overflow:visible" inkscape:isstock="true">
      <path id="path985" style="fill:#000000;fill-opacity:1;fill-rule:evenodd;stroke:#000000;stroke-width:0.625;stroke-linejoin:round;stroke-opacity:1" d="M 8.7185878,4.0337352 -2.2072895,0.01601326 8.7185884,-4.0017078 c -1.7454984,2.3720609 -1.7354408,5.6174519 -6e-7,8.035443 z" transform="matrix(-1.1,0,0,-1.1,-1.1,0)" inkscape:connector-curvature="0"/>
    </marker>
    <marker inkscape:stockid="TriangleOutL" orient="auto" refY="0" refX="0" id="TriangleOutL" style="overflow:visible" inkscape:isstock="true">
      <path id="path1106" d="M 5.77,0 -2.88,5 V -5 Z" style="fill:#000000;fill-opacity:1;fill-rule:evenodd;stroke:#000000;stroke-width:1.00000003pt;stroke-opacity:1" transform="scale(0.8)" inkscape:connector-curvature="0"/>
    </marker>
    <marker inkscape:stockid="DiamondLstart" orient="auto" refY="0" refX="0" id="DiamondLstart" style="overflow:visible" inkscape:isstock="true">
      <path id="path1052" d="M 0,-7.0710768 -7.0710894,0 0,7.0710589 7.0710462,0 Z" style="fill:#000000;fill-opacity:1;fill-rule:evenodd;stroke:#000000;stroke-width:1.00000003pt;stroke-opacity:1" transform="matrix(0.8,0,0,0.8,5.6,0)" inkscape:connector-curvature="0"/>
    </marker>
    <marker inkscape:stockid="Arrow1Lend" orient="auto" refY="0" refX="0" id="Arrow1Lend" style="overflow:visible" inkscape:isstock="true">
      <path id="path967" d="M 0,0 5,-5 -12.5,0 5,5 Z" style="fill:#000000;fill-opacity:1;fill-rule:evenodd;stroke:#000000;stroke-width:1.00000003pt;stroke-opacity:1" transform="matrix(-0.8,0,0,-0.8,-10,0)" inkscape:connector-curvature="0"/>
    </marker>
  <marker orient="auto" refY="0" refX="0" id="a" overflow="visible"><path d="M4.616 0l-6.92 4v-8z" fill="#000" fill-opacity="1" fill-rule="evenodd" stroke="#000" stroke-width="1.0664" stroke-opacity="1"/></marker></defs><symbol id="clear-all" viewBox="0 0 32 32"><path fill="none" d="M0 0h32v32H0z"/><path d="M2 26l4 4 10-10 10 10 4-4-10-10L30 6l-4-4-10 10L6 2 2 6l10 10z"/></symbol><symbol id="convex-hull" viewBox="0 0 573.194 164.091"><path style="line-height:normal;font-variant-ligatures:normal;font-variant-position:normal;font-variant-caps:normal;font-variant-numeric:normal;font-variant-alternates:normal;font-feature-settings:normal;text-indent:0;text-align:start;text-decoration-line:none;text-decoration-style:solid;text-decoration-color:#000;text-transform:none;text-orientation:mixed;shape-padding:0;isolation:auto;mix-blend-mode:normal" d="M429.845 16.903L396.158 61.46l-.012.23-3.238 65.06 109.002 21.583 54.14-53.596-68.423-43.003zm.383 1.983L486.84 53.01l66.812 41.988-52.232 51.71-106.95-21.179 3.163-63.535z" color="#000" font-style="normal" font-variant="normal" font-weight="400" font-stretch="normal" font-size="medium" font-family="sans-serif" text-decoration="none" letter-spacing="normal" word-spacing="normal" writing-mode="lr-tb" direction="ltr" dominant-baseline="auto" baseline-shift="baseline" text-anchor="start" white-space="normal" clip-rule="nonzero" display="inline" overflow="visible" visibility="visible" opacity="1" color-interpolation="sRGB" color-interpolation-filters="linearRGB" solid-color="#000" solid-opacity="1" vector-effect="none" fill="#272d2f" fill-opacity=".941" fill-rule="nonzero" stroke="none" stroke-width="1.5" stroke-linecap="butt" stroke-linejoin="miter" stroke-miterlimit="4" stroke-dashoffset="0" stroke-opacity="1" color-rendering="auto" image-rendering="auto" shape-rendering="auto" text-rendering="auto"/><g stroke-miterlimit="4" transform="translate(-12.434 -55.795)" fill="#41474f" fill-opacity=".941" stroke="#272d2f" stroke-width="1" stroke-linecap="round" stroke-linejoin="round" stroke-dashoffset="0" stroke-opacity=".941"><circle cx="32.607" cy="117.261" r="7"/><circle cx="66.016" cy="73.295" r="7"/><circle cx="123.211" cy="107.239" r="7"/><circle cx="29.934" cy="180.738" r="7"/><circle cx="136.575" cy="202.387" r="7"/><circle cx="78.31" cy="149.2" r="7"/><circle cx="191.632" cy="150.002" r="7"/><circle cx="127.755" cy="160.693" r="7"/></g><circle stroke-miterlimit="4" r="7" cy="61.466" cx="396.669" fill="#23ce6f" fill-opacity="1" stroke="#1da95f" stroke-width="1" stroke-linecap="round" stroke-linejoin="round" stroke-dashoffset="0" stroke-opacity="1"/><circle stroke-miterlimit="4" r="7" cy="17.5" cx="430.078" fill="#23ce6f" fill-opacity="1" stroke="#1da95f" stroke-width="1" stroke-linecap="round" stroke-linejoin="round" stroke-dashoffset="0" stroke-opacity="1"/><circle stroke-miterlimit="4" r="7" cy="51.444" cx="487.273" fill="#23ce6f" fill-opacity="1" stroke="#1da95f" stroke-width="1" stroke-linecap="round" stroke-linejoin="round" stroke-dashoffset="0" stroke-opacity=".941"/><circle stroke-miterlimit="4" r="7" cy="124.943" cx="393.996" fill="#23ce6f" fill-opacity="1" stroke="#1da95f" stroke-width="1" stroke-linecap="round" stroke-linejoin="round" stroke-dashoffset="0" stroke-opacity="1"/><circle stroke-miterlimit="4" r="7" cy="146.592" cx="500.637" fill="#23ce6f" fill-opacity="1" stroke="#1da95f" stroke-width="1" stroke-linecap="round" stroke-linejoin="round" stroke-dashoffset="0" stroke-opacity="1"/><circle stroke-miterlimit="4" r="7" cy="93.405" cx="442.372" fill="#ff6f5f" fill-opacity="1" stroke="#d15b4f" stroke-width="1" stroke-linecap="round" stroke-linejoin="round" stroke-dashoffset="0" stroke-opacity="1"/><circle stroke-miterlimit="4" r="7" cy="94.207" cx="555.694" fill="#23ce6f" fill-opacity="1" stroke="#1da95f" stroke-width="1" stroke-linecap="round" stroke-linejoin="round" stroke-dashoffset="0" stroke-opacity="1"/><circle stroke-miterlimit="4" r="7" cy="104.898" cx="491.817" fill="#ff6f5f" fill-opacity="1" stroke="#d15b4f" stroke-width="1" stroke-linecap="round" stroke-linejoin="round" stroke-dashoffset="0" stroke-opacity="1"/><path stroke-miterlimit="1" d="M220.944 82.046h102.898" fill="none" stroke="#000" stroke-width="2.646" stroke-linecap="butt" stroke-linejoin="miter" stroke-opacity="1" marker-end="url(#a)"/></symbol><symbol id="generate-points" viewBox="0 0 1792 1792"><path d="M666 545q-60 92-137 273-22-45-37-72.5T451.5 682q-25.5-36-51-56.5t-63-35Q300 576 256 576H32q-14 0-23-9t-9-23V352q0-14 9-23t23-9h224q250 0 410 225zm1126 799q0 14-9 23l-320 320q-9 9-23 9-13 0-22.5-9.5t-9.5-22.5v-192q-32 0-85 .5t-81 1q-28 .5-73-1t-71-5q-26-3.5-64-10.5t-63-18.5q-25-11.5-58-28.5t-59-40q-26-23-55-53.5t-56-69.5q59-93 136-273 22 45 37 72.5t40.5 63.5q25.5 36 51 56.5t63 35q37.5 14.5 81.5 14.5h256v-192q0-14 9-23t23-9q12 0 24 10l319 319q9 9 9 23zm0-896q0 14-9 23l-320 320q-9 9-23 9-13 0-22.5-9.5T1408 768V576h-256q-48 0-87 15t-69 45q-30 30-51 61.5T900 775q-32 62-78 171-29 66-49.5 111t-54 105q-33.5 60-64 100t-74 83q-43.5 43-90 68.5t-106.5 42q-60 16.5-128 16.5H32q-14 0-23-9t-9-23v-192q0-14 9-23t23-9h224q48 0 87-15t69-45q30-30 51-61.5t45-77.5q32-62 78-171 29-66 49.5-111t54-105q33.5-60 64-100t74-83q43.5-43 90-68.5t106.5-42q60-16.5 128-16.5h256V128q0-14 9-23t23-9q12 0 24 10l319 319q9 9 9 23z"/></symbol><symbol id="next-step" viewBox="0 0 24 24"><path d="M21.7 10.2l-6.6-6c-.5-.5-1.1 0-1.1.8v3c-4.7 0-8.7 2.9-10.6 6.8-.7 1.3-1.1 2.7-1.4 4.1-.2 1 1.3 1.5 1.9.6C6.1 16 9.8 13.7 14 13.7V17c0 .8.6 1.3 1.1.8l6.6-6c.4-.4.4-1.2 0-1.6z"/></symbol><symbol id="play" viewBox="0 0 512 512"><path d="M405.2 232.9L126.8 67.2c-3.4-2-6.9-3.2-10.9-3.2-10.9 0-19.8 9-19.8 20H96v344h.1c0 11 8.9 20 19.8 20 4.1 0 7.5-1.4 11.2-3.4l278.1-165.5c6.6-5.5 10.8-13.8 10.8-23.1s-4.2-17.5-10.8-23.1z"/></symbol><symbol id="play-auto" viewBox="0 0 512 512"><path d="M197.951 64c-10.9 0-19.8 9-19.8 20h-.1v35.857l184.928 110.067c7.45 6.321 12.19 15.578 12.19 26.076a33.84 33.84 0 0 1-12.19 26.076L178.05 392.13V428h.1c0 11 8.9 20 19.8 20 4.1 0 7.5-1.4 11.2-3.4l278.1-165.5c6.6-5.5 10.8-13.8 10.8-23.1s-4.2-17.5-10.8-23.1L208.852 67.2c-3.4-2-6.9-3.2-10.9-3.2z"/><path d="M323.15 232.9L44.75 67.2c-3.4-2-6.9-3.2-10.9-3.2-10.9 0-19.8 9-19.8 20h-.1v344h.1c0 11 8.9 20 19.8 20 4.1 0 7.5-1.4 11.2-3.4l278.1-165.5c6.6-5.5 10.8-13.8 10.8-23.1s-4.2-17.5-10.8-23.1z"/></symbol><symbol id="spritesheet"><symbol id="clear-all" viewBox="0 0 32 32"><path fill="none" d="M0 0h32v32H0z"/><path d="M2 26l4 4 10-10 10 10 4-4-10-10L30 6l-4-4-10 10L6 2 2 6l10 10z"/></symbol><symbol id="convex-hull" viewBox="0 0 573.194 164.091"><path style="line-height:normal;font-variant-ligatures:normal;font-variant-position:normal;font-variant-caps:normal;font-variant-numeric:normal;font-variant-alternates:normal;font-feature-settings:normal;text-indent:0;text-align:start;text-decoration-line:none;text-decoration-style:solid;text-decoration-color:#000;text-transform:none;text-orientation:mixed;shape-padding:0;isolation:auto;mix-blend-mode:normal" d="M429.845 16.903L396.158 61.46l-.012.23-3.238 65.06 109.002 21.583 54.14-53.596-68.423-43.003zm.383 1.983L486.84 53.01l66.812 41.988-52.232 51.71-106.95-21.179 3.163-63.535z" color="#000" font-style="normal" font-variant="normal" font-weight="400" font-stretch="normal" font-size="medium" font-family="sans-serif" text-decoration="none" letter-spacing="normal" word-spacing="normal" writing-mode="lr-tb" direction="ltr" dominant-baseline="auto" baseline-shift="baseline" text-anchor="start" white-space="normal" clip-rule="nonzero" display="inline" overflow="visible" visibility="visible" opacity="1" color-interpolation="sRGB" color-interpolation-filters="linearRGB" solid-color="#000" solid-opacity="1" vector-effect="none" fill="#272d2f" fill-opacity=".941" fill-rule="nonzero" stroke="none" stroke-width="1.5" stroke-linecap="butt" stroke-linejoin="miter" stroke-miterlimit="4" stroke-dashoffset="0" stroke-opacity="1" color-rendering="auto" image-rendering="auto" shape-rendering="auto" text-rendering="auto"/><g stroke-miterlimit="4" transform="translate(-12.434 -55.795)" fill="#41474f" fill-opacity=".941" stroke="#272d2f" stroke-width="1" stroke-linecap="round" stroke-linejoin="round" stroke-dashoffset="0" stroke-opacity=".941"><circle cx="32.607" cy="117.261" r="7"/><circle cx="66.016" cy="73.295" r="7"/><circle cx="123.211" cy="107.239" r="7"/><circle cx="29.934" cy="180.738" r="7"/><circle cx="136.575" cy="202.387" r="7"/><circle cx="78.31" cy="149.2" r="7"/><circle cx="191.632" cy="150.002" r="7"/><circle cx="127.755" cy="160.693" r="7"/></g><circle stroke-miterlimit="4" r="7" cy="61.466" cx="396.669" fill="#23ce6f" fill-opacity="1" stroke="#1da95f" stroke-width="1" stroke-linecap="round" stroke-linejoin="round" stroke-dashoffset="0" stroke-opacity="1"/><circle stroke-miterlimit="4" r="7" cy="17.5" cx="430.078" fill="#23ce6f" fill-opacity="1" stroke="#1da95f" stroke-width="1" stroke-linecap="round" stroke-linejoin="round" stroke-dashoffset="0" stroke-opacity="1"/><circle stroke-miterlimit="4" r="7" cy="51.444" cx="487.273" fill="#23ce6f" fill-opacity="1" stroke="#1da95f" stroke-width="1" stroke-linecap="round" stroke-linejoin="round" stroke-dashoffset="0" stroke-opacity=".941"/><circle stroke-miterlimit="4" r="7" cy="124.943" cx="393.996" fill="#23ce6f" fill-opacity="1" stroke="#1da95f" stroke-width="1" stroke-linecap="round" stroke-linejoin="round" stroke-dashoffset="0" stroke-opacity="1"/><circle stroke-miterlimit="4" r="7" cy="146.592" cx="500.637" fill="#23ce6f" fill-opacity="1" stroke="#1da95f" stroke-width="1" stroke-linecap="round" stroke-linejoin="round" stroke-dashoffset="0" stroke-opacity="1"/><circle stroke-miterlimit="4" r="7" cy="93.405" cx="442.372" fill="#ff6f5f" fill-opacity="1" stroke="#d15b4f" stroke-width="1" stroke-linecap="round" stroke-linejoin="round" stroke-dashoffset="0" stroke-opacity="1"/><circle stroke-miterlimit="4" r="7" cy="94.207" cx="555.694" fill="#23ce6f" fill-opacity="1" stroke="#1da95f" stroke-width="1" stroke-linecap="round" stroke-linejoin="round" stroke-dashoffset="0" stroke-opacity="1"/><circle stroke-miterlimit="4" r="7" cy="104.898" cx="491.817" fill="#ff6f5f" fill-opacity="1" stroke="#d15b4f" stroke-width="1" stroke-linecap="round" stroke-linejoin="round" stroke-dashoffset="0" stroke-opacity="1"/><path stroke-miterlimit="1" d="M220.944 82.046h102.898" fill="none" stroke="#000" stroke-width="2.646" stroke-linecap="butt" stroke-linejoin="miter" stroke-opacity="1" marker-end="url(#a)"/></symbol><symbol id="generate-points" viewBox="0 0 1792 1792"><path d="M666 545q-60 92-137 273-22-45-37-72.5T451.5 682q-25.5-36-51-56.5t-63-35Q300 576 256 576H32q-14 0-23-9t-9-23V352q0-14 9-23t23-9h224q250 0 410 225zm1126 799q0 14-9 23l-320 320q-9 9-23 9-13 0-22.5-9.5t-9.5-22.5v-192q-32 0-85 .5t-81 1q-28 .5-73-1t-71-5q-26-3.5-64-10.5t-63-18.5q-25-11.5-58-28.5t-59-40q-26-23-55-53.5t-56-69.5q59-93 136-273 22 45 37 72.5t40.5 63.5q25.5 36 51 56.5t63 35q37.5 14.5 81.5 14.5h256v-192q0-14 9-23t23-9q12 0 24 10l319 319q9 9 9 23zm0-896q0 14-9 23l-320 320q-9 9-23 9-13 0-22.5-9.5T1408 768V576h-256q-48 0-87 15t-69 45q-30 30-51 61.5T900 775q-32 62-78 171-29 66-49.5 111t-54 105q-33.5 60-64 100t-74 83q-43.5 43-90 68.5t-106.5 42q-60 16.5-128 16.5H32q-14 0-23-9t-9-23v-192q0-14 9-23t23-9h224q48 0 87-15t69-45q30-30 51-61.5t45-77.5q32-62 78-171 29-66 49.5-111t54-105q33.5-60 64-100t74-83q43.5-43 90-68.5t106.5-42q60-16.5 128-16.5h256V128q0-14 9-23t23-9q12 0 24 10l319 319q9 9 9 23z"/></symbol><symbol id="next-step" viewBox="0 0 24 24"><path d="M21.7 10.2l-6.6-6c-.5-.5-1.1 0-1.1.8v3c-4.7 0-8.7 2.9-10.6 6.8-.7 1.3-1.1 2.7-1.4 4.1-.2 1 1.3 1.5 1.9.6C6.1 16 9.8 13.7 14 13.7V17c0 .8.6 1.3 1.1.8l6.6-6c.4-.4.4-1.2 0-1.6z"/></symbol><symbol id="play" viewBox="0 0 512 512"><path d="M405.2 232.9L126.8 67.2c-3.4-2-6.9-3.2-10.9-3.2-10.9 0-19.8 9-19.8 20H96v344h.1c0 11 8.9 20 19.8 20 4.1 0 7.5-1.4 11.2-3.4l278.1-165.5c6.6-5.5 10.8-13.8 10.8-23.1s-4.2-17.5-10.8-23.1z"/></symbol><symbol id="play-auto" viewBox="0 0 512 512"><path d="M197.951 64c-10.9 0-19.8 9-19.8 20h-.1v35.857l184.928 110.067c7.45 6.321 12.19 15.578 12.19 26.076a33.84 33.84 0 0 1-12.19 26.076L178.05 392.13V428h.1c0 11 8.9 20 19.8 20 4.1 0 7.5-1.4 11.2-3.4l278.1-165.5c6.6-5.5 10.8-13.8 10.8-23.1s-4.2-17.5-10.8-23.1L208.852 67.2c-3.4-2-6.9-3.2-10.9-3.2z"/><path d="M323.15 232.9L44.75 67.2c-3.4-2-6.9-3.2-10.9-3.2-10.9 0-19.8 9-19.8 20h-.1v344h.1c0 11 8.9 20 19.8 20 4.1 0 7.5-1.4 11.2-3.4l278.1-165.5c6.6-5.5 10.8-13.8 10.8-23.1s-4.2-17.5-10.8-23.1z"/></symbol><symbol id="spritesheet"><symbol id="clear-all" viewBox="0 0 32 32"><path fill="none" d="M0 0h32v32H0z"/><path d="M2 26l4 4 10-10 10 10 4-4-10-10L30 6l-4-4-10 10L6 2 2 6l10 10z"/></symbol><symbol id="convex-hull" viewBox="0 0 573.194 164.091"><path style="line-height:normal;font-variant-ligatures:normal;font-variant-position:normal;font-variant-caps:normal;font-variant-numeric:normal;font-variant-alternates:normal;font-feature-settings:normal;text-indent:0;text-align:start;text-decoration-line:none;text-decoration-style:solid;text-decoration-color:#000;text-transform:none;text-orientation:mixed;shape-padding:0;isolation:auto;mix-blend-mode:normal" d="M429.845 16.903L396.158 61.46l-.012.23-3.238 65.06 109.002 21.583 54.14-53.596-68.423-43.003zm.383 1.983L486.84 53.01l66.812 41.988-52.232 51.71-106.95-21.179 3.163-63.535z" color="#000" font-style="normal" font-variant="normal" font-weight="400" font-stretch="normal" font-size="medium" font-family="sans-serif" text-decoration="none" letter-spacing="normal" word-spacing="normal" writing-mode="lr-tb" direction="ltr" dominant-baseline="auto" baseline-shift="baseline" text-anchor="start" white-space="normal" clip-rule="nonzero" display="inline" overflow="visible" visibility="visible" opacity="1" color-interpolation="sRGB" color-interpolation-filters="linearRGB" solid-color="#000" solid-opacity="1" vector-effect="none" fill="#272d2f" fill-opacity=".941" fill-rule="nonzero" stroke="none" stroke-width="1.5" stroke-linecap="butt" stroke-linejoin="miter" stroke-miterlimit="4" stroke-dashoffset="0" stroke-opacity="1" color-rendering="auto" image-rendering="auto" shape-rendering="auto" text-rendering="auto"/><g transform="translate(-12.434 -66.454)"><g transform="translate(0 10.659)" fill="#41474f" fill-opacity=".941" stroke="#272d2f" stroke-width="1" stroke-linecap="round" stroke-linejoin="round" stroke-miterlimit="4" stroke-dashoffset="0" stroke-opacity=".941"><circle r="7" cy="117.261" cx="32.607"/><circle r="7" cy="73.295" cx="66.016"/><circle r="7" cy="107.239" cx="123.211"/><circle r="7" cy="180.738" cx="29.934"/><circle r="7" cy="202.387" cx="136.575"/><circle r="7" cy="149.2" cx="78.31"/><circle r="7" cy="150.002" cx="191.632"/><circle r="7" cy="160.693" cx="127.755"/></g><circle cx="409.103" cy="127.92" r="7" fill="#23ce6f" fill-opacity="1" stroke="#1da95f" stroke-width="1" stroke-linecap="round" stroke-linejoin="round" stroke-miterlimit="4" stroke-dashoffset="0" stroke-opacity="1"/><circle cx="442.512" cy="83.954" r="7" fill="#23ce6f" fill-opacity="1" stroke="#1da95f" stroke-width="1" stroke-linecap="round" stroke-linejoin="round" stroke-miterlimit="4" stroke-dashoffset="0" stroke-opacity="1"/><circle cx="499.707" cy="117.898" r="7" fill="#23ce6f" fill-opacity="1" stroke="#1da95f" stroke-width="1" stroke-linecap="round" stroke-linejoin="round" stroke-miterlimit="4" stroke-dashoffset="0" stroke-opacity=".941"/><circle cx="406.43" cy="191.397" r="7" fill="#23ce6f" fill-opacity="1" stroke="#1da95f" stroke-width="1" stroke-linecap="round" stroke-linejoin="round" stroke-miterlimit="4" stroke-dashoffset="0" stroke-opacity="1"/><circle cx="513.071" cy="213.046" r="7" fill="#23ce6f" fill-opacity="1" stroke="#1da95f" stroke-width="1" stroke-linecap="round" stroke-linejoin="round" stroke-miterlimit="4" stroke-dashoffset="0" stroke-opacity="1"/><circle cx="454.806" cy="159.859" r="7" fill="#ff6f5f" fill-opacity="1" stroke="#d15b4f" stroke-width="1" stroke-linecap="round" stroke-linejoin="round" stroke-miterlimit="4" stroke-dashoffset="0" stroke-opacity="1"/><circle cx="568.128" cy="160.661" r="7" fill="#23ce6f" fill-opacity="1" stroke="#1da95f" stroke-width="1" stroke-linecap="round" stroke-linejoin="round" stroke-miterlimit="4" stroke-dashoffset="0" stroke-opacity="1"/><circle cx="504.251" cy="171.352" r="7" fill="#ff6f5f" fill-opacity="1" stroke="#d15b4f" stroke-width="1" stroke-linecap="round" stroke-linejoin="round" stroke-miterlimit="4" stroke-dashoffset="0" stroke-opacity="1"/><path d="M233.378 148.5h102.898" fill="none" stroke="#000" stroke-width="5" stroke-linecap="butt" stroke-linejoin="miter" stroke-miterlimit="1" stroke-opacity="1" marker-end="url(#a)"/></g></symbol><symbol id="generate-points" viewBox="0 0 1792 1792"><path d="M666 545q-60 92-137 273-22-45-37-72.5T451.5 682q-25.5-36-51-56.5t-63-35Q300 576 256 576H32q-14 0-23-9t-9-23V352q0-14 9-23t23-9h224q250 0 410 225zm1126 799q0 14-9 23l-320 320q-9 9-23 9-13 0-22.5-9.5t-9.5-22.5v-192q-32 0-85 .5t-81 1q-28 .5-73-1t-71-5q-26-3.5-64-10.5t-63-18.5q-25-11.5-58-28.5t-59-40q-26-23-55-53.5t-56-69.5q59-93 136-273 22 45 37 72.5t40.5 63.5q25.5 36 51 56.5t63 35q37.5 14.5 81.5 14.5h256v-192q0-14 9-23t23-9q12 0 24 10l319 319q9 9 9 23zm0-896q0 14-9 23l-320 320q-9 9-23 9-13 0-22.5-9.5T1408 768V576h-256q-48 0-87 15t-69 45q-30 30-51 61.5T900 775q-32 62-78 171-29 66-49.5 111t-54 105q-33.5 60-64 100t-74 83q-43.5 43-90 68.5t-106.5 42q-60 16.5-128 16.5H32q-14 0-23-9t-9-23v-192q0-14 9-23t23-9h224q48 0 87-15t69-45q30-30 51-61.5t45-77.5q32-62 78-171 29-66 49.5-111t54-105q33.5-60 64-100t74-83q43.5-43 90-68.5t106.5-42q60-16.5 128-16.5h256V128q0-14 9-23t23-9q12 0 24 10l319 319q9 9 9 23z"/></symbol><symbol id="next-step" viewBox="0 0 24 24"><path d="M21.7 10.2l-6.6-6c-.5-.5-1.1 0-1.1.8v3c-4.7 0-8.7 2.9-10.6 6.8-.7 1.3-1.1 2.7-1.4 4.1-.2 1 1.3 1.5 1.9.6C6.1 16 9.8 13.7 14 13.7V17c0 .8.6 1.3 1.1.8l6.6-6c.4-.4.4-1.2 0-1.6z"/></symbol><symbol id="play" viewBox="0 0 512 512"><path d="M405.2 232.9L126.8 67.2c-3.4-2-6.9-3.2-10.9-3.2-10.9 0-19.8 9-19.8 20H96v344h.1c0 11 8.9 20 19.8 20 4.1 0 7.5-1.4 11.2-3.4l278.1-165.5c6.6-5.5 10.8-13.8 10.8-23.1s-4.2-17.5-10.8-23.1z"/></symbol><symbol id="play-auto" viewBox="0 0 512 512"><path d="M197.951 64c-10.9 0-19.8 9-19.8 20h-.1v35.857l184.928 110.067c7.45 6.321 12.19 15.578 12.19 26.076a33.84 33.84 0 0 1-12.19 26.076L178.05 392.13V428h.1c0 11 8.9 20 19.8 20 4.1 0 7.5-1.4 11.2-3.4l278.1-165.5c6.6-5.5 10.8-13.8 10.8-23.1s-4.2-17.5-10.8-23.1L208.852 67.2c-3.4-2-6.9-3.2-10.9-3.2z"/><path d="M323.15 232.9L44.75 67.2c-3.4-2-6.9-3.2-10.9-3.2-10.9 0-19.8 9-19.8 20h-.1v344h.1c0 11 8.9 20 19.8 20 4.1 0 7.5-1.4 11.2-3.4l278.1-165.5c6.6-5.5 10.8-13.8 10.8-23.1s-4.2-17.5-10.8-23.1z"/></symbol><symbol id="spritesheet"><symbol id="clear-all" viewBox="0 0 32 32"><path fill="none" d="M0 0h32v32H0z"/><path d="M2 26l4 4 10-10 10 10 4-4-10-10L30 6l-4-4-10 10L6 2 2 6l10 10z"/></symbol><symbol id="convex-hull" viewBox="0 0 573.19421 164.09119">
  
  <sodipodi:namedview id="base" pagecolor="#ffffff" bordercolor="#666666" borderopacity="1.0" inkscape:pageopacity="0.0" inkscape:pageshadow="2" inkscape:zoom="0.7" inkscape:cx="1088.6258" inkscape:cy="309.86058" inkscape:document-units="mm" inkscape:current-layer="layer1" showgrid="false" fit-margin-top="10" fit-margin-left="10" fit-margin-right="10" fit-margin-bottom="10" inkscape:window-width="3000" inkscape:window-height="1955" inkscape:window-x="-13" inkscape:window-y="-13" inkscape:window-maximized="1"/>
  <metadata id="metadata5">
    <rdf:RDF>
      <cc:Work rdf:about="">
        <dc:format>image/svg+xml</dc:format>
        <dc:type rdf:resource="http://purl.org/dc/dcmitype/StillImage"/>
        <dc:title/>
      </cc:Work>
    </rdf:RDF>
  </metadata>
  <g inkscape:groupmode="layer" id="layer2" inkscape:label="Layer 2">
    <path style="color:#000000;font-style:normal;font-variant:normal;font-weight:normal;font-stretch:normal;font-size:medium;line-height:normal;font-family:sans-serif;font-variant-ligatures:normal;font-variant-position:normal;font-variant-caps:normal;font-variant-numeric:normal;font-variant-alternates:normal;font-feature-settings:normal;text-indent:0;text-align:start;text-decoration:none;text-decoration-line:none;text-decoration-style:solid;text-decoration-color:#000000;letter-spacing:normal;word-spacing:normal;text-transform:none;writing-mode:lr-tb;direction:ltr;text-orientation:mixed;dominant-baseline:auto;baseline-shift:baseline;text-anchor:start;white-space:normal;shape-padding:0;clip-rule:nonzero;display:inline;overflow:visible;visibility:visible;opacity:1;isolation:auto;mix-blend-mode:normal;color-interpolation:sRGB;color-interpolation-filters:linearRGB;solid-color:#000000;solid-opacity:1;vector-effect:none;fill:#272d2f;fill-opacity:0.94117647;fill-rule:nonzero;stroke:none;stroke-width:1.5;stroke-linecap:butt;stroke-linejoin:miter;stroke-miterlimit:4;stroke-dasharray:none;stroke-dashoffset:0;stroke-opacity:1;color-rendering:auto;image-rendering:auto;shape-rendering:auto;text-rendering:auto;enable-background:accumulate" d="m 429.84548,16.903492 -33.6875,44.556639 -0.0117,0.23047 -3.23828,65.058599 109.00195,21.58399 54.14063,-53.595707 -68.42383,-43.003912 z m 0.38281,1.982422 56.61133,34.124997 66.8125,41.988282 -52.23242,51.708997 -106.94922,-21.17773 3.16211,-63.535167 z" id="path1726-8" inkscape:connector-curvature="0"/>
  </g>
  <g inkscape:label="Layer 1" inkscape:groupmode="layer" id="layer1" transform="translate(-12.434187,-66.454411)">
    <g id="g948" transform="translate(-3.3378602e-7,10.659008)">
      <circle r="7" cy="117.26125" cx="32.60688" id="path815" style="fill:#41474f;fill-opacity:0.94117647;stroke:#272d2f;stroke-width:1;stroke-linecap:round;stroke-linejoin:round;stroke-miterlimit:4;stroke-dasharray:none;stroke-dashoffset:0;stroke-opacity:0.94117647"/>
      <circle r="7" cy="73.295403" cx="66.015572" id="path815-8" style="fill:#41474f;fill-opacity:0.94117647;stroke:#272d2f;stroke-width:1;stroke-linecap:round;stroke-linejoin:round;stroke-miterlimit:4;stroke-dasharray:none;stroke-dashoffset:0;stroke-opacity:0.94117647"/>
      <circle r="7" cy="107.23863" cx="123.21125" id="path815-0" style="fill:#41474f;fill-opacity:0.94117647;stroke:#272d2f;stroke-width:1;stroke-linecap:round;stroke-linejoin:round;stroke-miterlimit:4;stroke-dasharray:none;stroke-dashoffset:0;stroke-opacity:0.94117647"/>
      <circle r="7" cy="180.73776" cx="29.934187" id="path815-7" style="fill:#41474f;fill-opacity:0.94117647;stroke:#272d2f;stroke-width:1;stroke-linecap:round;stroke-linejoin:round;stroke-miterlimit:4;stroke-dasharray:none;stroke-dashoffset:0;stroke-opacity:0.94117647"/>
      <circle r="7" cy="202.38658" cx="136.57472" id="path815-4" style="fill:#41474f;fill-opacity:0.94117647;stroke:#272d2f;stroke-width:1;stroke-linecap:round;stroke-linejoin:round;stroke-miterlimit:4;stroke-dasharray:none;stroke-dashoffset:0;stroke-opacity:0.94117647"/>
      <circle r="7" cy="149.19995" cx="78.309975" id="path815-08" style="fill:#41474f;fill-opacity:0.94117647;stroke:#272d2f;stroke-width:1;stroke-linecap:round;stroke-linejoin:round;stroke-miterlimit:4;stroke-dasharray:none;stroke-dashoffset:0;stroke-opacity:0.94117647"/>
      <circle r="7" cy="150.00175" cx="191.63225" id="path815-9" style="fill:#41474f;fill-opacity:0.94117647;stroke:#272d2f;stroke-width:1;stroke-linecap:round;stroke-linejoin:round;stroke-miterlimit:4;stroke-dasharray:none;stroke-dashoffset:0;stroke-opacity:0.94117647"/>
      <circle r="7" cy="160.69254" cx="127.75484" id="path815-6" style="fill:#41474f;fill-opacity:0.94117647;stroke:#272d2f;stroke-width:1;stroke-linecap:round;stroke-linejoin:round;stroke-miterlimit:4;stroke-dasharray:none;stroke-dashoffset:0;stroke-opacity:0.94117647"/>
    </g>
    <circle style="fill:#23ce6f;fill-opacity:1;stroke:#1da95f;stroke-width:1;stroke-linecap:round;stroke-linejoin:round;stroke-miterlimit:4;stroke-dasharray:none;stroke-dashoffset:0;stroke-opacity:1" id="path815-3" cx="409.103" cy="127.92027" r="7"/>
    <circle style="fill:#23ce6f;fill-opacity:1;stroke:#1da95f;stroke-width:1;stroke-linecap:round;stroke-linejoin:round;stroke-miterlimit:4;stroke-dasharray:none;stroke-dashoffset:0;stroke-opacity:1" id="path815-8-1" cx="442.51169" cy="83.954414" r="7"/>
    <circle style="fill:#23ce6f;fill-opacity:1;stroke:#1da95f;stroke-width:1;stroke-linecap:round;stroke-linejoin:round;stroke-miterlimit:4;stroke-dasharray:none;stroke-dashoffset:0;stroke-opacity:0.94117647" id="path815-0-9" cx="499.70737" cy="117.89764" r="7"/>
    <circle style="fill:#23ce6f;fill-opacity:1;stroke:#1da95f;stroke-width:1;stroke-linecap:round;stroke-linejoin:round;stroke-miterlimit:4;stroke-dasharray:none;stroke-dashoffset:0;stroke-opacity:1" id="path815-7-6" cx="406.4303" cy="191.39677" r="7"/>
    <circle style="fill:#23ce6f;fill-opacity:1;stroke:#1da95f;stroke-width:1;stroke-linecap:round;stroke-linejoin:round;stroke-miterlimit:4;stroke-dasharray:none;stroke-dashoffset:0;stroke-opacity:1" id="path815-4-0" cx="513.07086" cy="213.04559" r="7"/>
    <circle style="fill:#ff6f5f;fill-opacity:1;stroke:#d15b4f;stroke-width:1;stroke-linecap:round;stroke-linejoin:round;stroke-miterlimit:4;stroke-dasharray:none;stroke-dashoffset:0;stroke-opacity:1" id="path815-08-5" cx="454.80609" cy="159.85896" r="7"/>
    <circle style="fill:#23ce6f;fill-opacity:1;stroke:#1da95f;stroke-width:1;stroke-linecap:round;stroke-linejoin:round;stroke-miterlimit:4;stroke-dasharray:none;stroke-dashoffset:0;stroke-opacity:1" id="path815-9-9" cx="568.12842" cy="160.66077" r="7"/>
    <circle style="fill:#ff6f5f;fill-opacity:1;stroke:#d15b4f;stroke-width:1;stroke-linecap:round;stroke-linejoin:round;stroke-miterlimit:4;stroke-dasharray:none;stroke-dashoffset:0;stroke-opacity:1" id="path815-6-9" cx="504.25098" cy="171.35155" r="7"/>
    <path style="fill:none;stroke:#000000;stroke-width:5;stroke-linecap:butt;stroke-linejoin:miter;stroke-miterlimit:1;stroke-dasharray:none;stroke-opacity:1;marker-end:url(#TriangleOutL)" d="m 233.37758,148.5 c 102.89876,0 102.89876,0 102.89876,0" id="path1408" inkscape:connector-curvature="0"/>
  </g>
</symbol><symbol id="generate-points" viewBox="0 0 1792 1792"><path d="M666 545q-60 92-137 273-22-45-37-72.5T451.5 682q-25.5-36-51-56.5t-63-35Q300 576 256 576H32q-14 0-23-9t-9-23V352q0-14 9-23t23-9h224q250 0 410 225zm1126 799q0 14-9 23l-320 320q-9 9-23 9-13 0-22.5-9.5t-9.5-22.5v-192q-32 0-85 .5t-81 1q-28 .5-73-1t-71-5q-26-3.5-64-10.5t-63-18.5q-25-11.5-58-28.5t-59-40q-26-23-55-53.5t-56-69.5q59-93 136-273 22 45 37 72.5t40.5 63.5q25.5 36 51 56.5t63 35q37.5 14.5 81.5 14.5h256v-192q0-14 9-23t23-9q12 0 24 10l319 319q9 9 9 23zm0-896q0 14-9 23l-320 320q-9 9-23 9-13 0-22.5-9.5T1408 768V576h-256q-48 0-87 15t-69 45q-30 30-51 61.5T900 775q-32 62-78 171-29 66-49.5 111t-54 105q-33.5 60-64 100t-74 83q-43.5 43-90 68.5t-106.5 42q-60 16.5-128 16.5H32q-14 0-23-9t-9-23v-192q0-14 9-23t23-9h224q48 0 87-15t69-45q30-30 51-61.5t45-77.5q32-62 78-171 29-66 49.5-111t54-105q33.5-60 64-100t74-83q43.5-43 90-68.5t106.5-42q60-16.5 128-16.5h256V128q0-14 9-23t23-9q12 0 24 10l319 319q9 9 9 23z"/></symbol><symbol id="next-step" viewBox="0 0 24 24"><path d="M21.7 10.2l-6.6-6c-.5-.5-1.1 0-1.1.8v3c-4.7 0-8.7 2.9-10.6 6.8-.7 1.3-1.1 2.7-1.4 4.1-.2 1 1.3 1.5 1.9.6C6.1 16 9.8 13.7 14 13.7V17c0 .8.6 1.3 1.1.8l6.6-6c.4-.4.4-1.2 0-1.6z"/></symbol><symbol id="play" viewBox="0 0 512 512"><path d="M405.2 232.9L126.8 67.2c-3.4-2-6.9-3.2-10.9-3.2-10.9 0-19.8 9-19.8 20H96v344h.1c0 11 8.9 20 19.8 20 4.1 0 7.5-1.4 11.2-3.4l278.1-165.5c6.6-5.5 10.8-13.8 10.8-23.1s-4.2-17.5-10.8-23.1z"/></symbol><symbol id="play-auto" viewBox="0 0 512 512"><path d="M197.951 64c-10.9 0-19.8 9-19.8 20h-.1v35.857l184.928 110.067c7.45 6.321 12.19 15.578 12.19 26.076a33.84 33.84 0 0 1-12.19 26.076L178.05 392.13V428h.1c0 11 8.9 20 19.8 20 4.1 0 7.5-1.4 11.2-3.4l278.1-165.5c6.6-5.5 10.8-13.8 10.8-23.1s-4.2-17.5-10.8-23.1L208.852 67.2c-3.4-2-6.9-3.2-10.9-3.2z"/><path d="M323.15 232.9L44.75 67.2c-3.4-2-6.9-3.2-10.9-3.2-10.9 0-19.8 9-19.8 20h-.1v344h.1c0 11 8.9 20 19.8 20 4.1 0 7.5-1.4 11.2-3.4l278.1-165.5c6.6-5.5 10.8-13.8 10.8-23.1s-4.2-17.5-10.8-23.1z"/></symbol><symbol id="spritesheet"><symbol id="clear-all" viewBox="0 0 32 32"><path fill="none" d="M0 0h32v32H0z"/><path d="M2 26l4 4 10-10 10 10 4-4-10-10L30 6l-4-4-10 10L6 2 2 6l10 10z"/></symbol><symbol id="convex-hull" viewBox="0 0 573.194 164.091"><path style="line-height:normal;font-variant-ligatures:normal;font-variant-position:normal;font-variant-caps:normal;font-variant-numeric:normal;font-variant-alternates:normal;font-feature-settings:normal;text-indent:0;text-align:start;text-decoration-line:none;text-decoration-style:solid;text-decoration-color:#000;text-transform:none;text-orientation:mixed;shape-padding:0;isolation:auto;mix-blend-mode:normal" d="M429.845 16.903L396.158 61.46l-.012.23-3.238 65.06 109.002 21.583 54.14-53.596-68.423-43.003zm.383 1.983L486.84 53.01l66.812 41.988-52.232 51.71-106.95-21.179 3.163-63.535z" color="#000" font-style="normal" font-variant="normal" font-weight="400" font-stretch="normal" font-size="medium" font-family="sans-serif" text-decoration="none" letter-spacing="normal" word-spacing="normal" writing-mode="lr-tb" direction="ltr" dominant-baseline="auto" baseline-shift="baseline" text-anchor="start" white-space="normal" clip-rule="nonzero" display="inline" overflow="visible" visibility="visible" opacity="1" color-interpolation="sRGB" color-interpolation-filters="linearRGB" solid-color="#000" solid-opacity="1" vector-effect="none" fill="#272d2f" fill-opacity=".941" fill-rule="nonzero" stroke="none" stroke-width="1.5" stroke-linecap="butt" stroke-linejoin="miter" stroke-miterlimit="4" stroke-dashoffset="0" stroke-opacity="1" color-rendering="auto" image-rendering="auto" shape-rendering="auto" text-rendering="auto"/><g transform="translate(-12.434 -66.454)"><g transform="translate(0 10.659)" fill="#41474f" fill-opacity=".941" stroke="#272d2f" stroke-width="1" stroke-linecap="round" stroke-linejoin="round" stroke-miterlimit="4" stroke-dashoffset="0" stroke-opacity=".941"><circle r="7" cy="117.261" cx="32.607"/><circle r="7" cy="73.295" cx="66.016"/><circle r="7" cy="107.239" cx="123.211"/><circle r="7" cy="180.738" cx="29.934"/><circle r="7" cy="202.387" cx="136.575"/><circle r="7" cy="149.2" cx="78.31"/><circle r="7" cy="150.002" cx="191.632"/><circle r="7" cy="160.693" cx="127.755"/></g><circle cx="409.103" cy="127.92" r="7" fill="#23ce6f" fill-opacity="1" stroke="#1da95f" stroke-width="1" stroke-linecap="round" stroke-linejoin="round" stroke-miterlimit="4" stroke-dashoffset="0" stroke-opacity="1"/><circle cx="442.512" cy="83.954" r="7" fill="#23ce6f" fill-opacity="1" stroke="#1da95f" stroke-width="1" stroke-linecap="round" stroke-linejoin="round" stroke-miterlimit="4" stroke-dashoffset="0" stroke-opacity="1"/><circle cx="499.707" cy="117.898" r="7" fill="#23ce6f" fill-opacity="1" stroke="#1da95f" stroke-width="1" stroke-linecap="round" stroke-linejoin="round" stroke-miterlimit="4" stroke-dashoffset="0" stroke-opacity=".941"/><circle cx="406.43" cy="191.397" r="7" fill="#23ce6f" fill-opacity="1" stroke="#1da95f" stroke-width="1" stroke-linecap="round" stroke-linejoin="round" stroke-miterlimit="4" stroke-dashoffset="0" stroke-opacity="1"/><circle cx="513.071" cy="213.046" r="7" fill="#23ce6f" fill-opacity="1" stroke="#1da95f" stroke-width="1" stroke-linecap="round" stroke-linejoin="round" stroke-miterlimit="4" stroke-dashoffset="0" stroke-opacity="1"/><circle cx="454.806" cy="159.859" r="7" fill="#ff6f5f" fill-opacity="1" stroke="#d15b4f" stroke-width="1" stroke-linecap="round" stroke-linejoin="round" stroke-miterlimit="4" stroke-dashoffset="0" stroke-opacity="1"/><circle cx="568.128" cy="160.661" r="7" fill="#23ce6f" fill-opacity="1" stroke="#1da95f" stroke-width="1" stroke-linecap="round" stroke-linejoin="round" stroke-miterlimit="4" stroke-dashoffset="0" stroke-opacity="1"/><circle cx="504.251" cy="171.352" r="7" fill="#ff6f5f" fill-opacity="1" stroke="#d15b4f" stroke-width="1" stroke-linecap="round" stroke-linejoin="round" stroke-miterlimit="4" stroke-dashoffset="0" stroke-opacity="1"/><path d="M233.378 148.5h102.898" fill="none" stroke="#000" stroke-width="5" stroke-linecap="butt" stroke-linejoin="miter" stroke-miterlimit="1" stroke-opacity="1" marker-end="url(#a)"/></g></symbol><symbol id="generate-points" viewBox="0 0 1792 1792"><path d="M666 545q-60 92-137 273-22-45-37-72.5T451.5 682q-25.5-36-51-56.5t-63-35Q300 576 256 576H32q-14 0-23-9t-9-23V352q0-14 9-23t23-9h224q250 0 410 225zm1126 799q0 14-9 23l-320 320q-9 9-23 9-13 0-22.5-9.5t-9.5-22.5v-192q-32 0-85 .5t-81 1q-28 .5-73-1t-71-5q-26-3.5-64-10.5t-63-18.5q-25-11.5-58-28.5t-59-40q-26-23-55-53.5t-56-69.5q59-93 136-273 22 45 37 72.5t40.5 63.5q25.5 36 51 56.5t63 35q37.5 14.5 81.5 14.5h256v-192q0-14 9-23t23-9q12 0 24 10l319 319q9 9 9 23zm0-896q0 14-9 23l-320 320q-9 9-23 9-13 0-22.5-9.5T1408 768V576h-256q-48 0-87 15t-69 45q-30 30-51 61.5T900 775q-32 62-78 171-29 66-49.5 111t-54 105q-33.5 60-64 100t-74 83q-43.5 43-90 68.5t-106.5 42q-60 16.5-128 16.5H32q-14 0-23-9t-9-23v-192q0-14 9-23t23-9h224q48 0 87-15t69-45q30-30 51-61.5t45-77.5q32-62 78-171 29-66 49.5-111t54-105q33.5-60 64-100t74-83q43.5-43 90-68.5t106.5-42q60-16.5 128-16.5h256V128q0-14 9-23t23-9q12 0 24 10l319 319q9 9 9 23z"/></symbol><symbol id="next-step" viewBox="0 0 24 24"><path d="M21.7 10.2l-6.6-6c-.5-.5-1.1 0-1.1.8v3c-4.7 0-8.7 2.9-10.6 6.8-.7 1.3-1.1 2.7-1.4 4.1-.2 1 1.3 1.5 1.9.6C6.1 16 9.8 13.7 14 13.7V17c0 .8.6 1.3 1.1.8l6.6-6c.4-.4.4-1.2 0-1.6z"/></symbol><symbol id="play" viewBox="0 0 512 512"><path d="M405.2 232.9L126.8 67.2c-3.4-2-6.9-3.2-10.9-3.2-10.9 0-19.8 9-19.8 20H96v344h.1c0 11 8.9 20 19.8 20 4.1 0 7.5-1.4 11.2-3.4l278.1-165.5c6.6-5.5 10.8-13.8 10.8-23.1s-4.2-17.5-10.8-23.1z"/></symbol><symbol id="play-auto" viewBox="0 0 512 512"><path d="M197.951 64c-10.9 0-19.8 9-19.8 20h-.1v35.857l184.928 110.067c7.45 6.321 12.19 15.578 12.19 26.076a33.84 33.84 0 0 1-12.19 26.076L178.05 392.13V428h.1c0 11 8.9 20 19.8 20 4.1 0 7.5-1.4 11.2-3.4l278.1-165.5c6.6-5.5 10.8-13.8 10.8-23.1s-4.2-17.5-10.8-23.1L208.852 67.2c-3.4-2-6.9-3.2-10.9-3.2z"/><path d="M323.15 232.9L44.75 67.2c-3.4-2-6.9-3.2-10.9-3.2-10.9 0-19.8 9-19.8 20h-.1v344h.1c0 11 8.9 20 19.8 20 4.1 0 7.5-1.4 11.2-3.4l278.1-165.5c6.6-5.5 10.8-13.8 10.8-23.1s-4.2-17.5-10.8-23.1z"/></symbol><symbol id="spritesheet"><symbol id="clear-all" viewBox="0 0 32 32"><path fill="none" d="M0 0h32v32H0z"/><path d="M2 26l4 4 10-10 10 10 4-4-10-10L30 6l-4-4-10 10L6 2 2 6l10 10z"/></symbol><symbol id="spawn-points" viewBox="0 0 1792 1792"><path d="M666 545q-60 92-137 273-22-45-37-72.5T451.5 682q-25.5-36-51-56.5t-63-35Q300 576 256 576H32q-14 0-23-9t-9-23V352q0-14 9-23t23-9h224q250 0 410 225zm1126 799q0 14-9 23l-320 320q-9 9-23 9-13 0-22.5-9.5t-9.5-22.5v-192q-32 0-85 .5t-81 1q-28 .5-73-1t-71-5q-26-3.5-64-10.5t-63-18.5q-25-11.5-58-28.5t-59-40q-26-23-55-53.5t-56-69.5q59-93 136-273 22 45 37 72.5t40.5 63.5q25.5 36 51 56.5t63 35q37.5 14.5 81.5 14.5h256v-192q0-14 9-23t23-9q12 0 24 10l319 319q9 9 9 23zm0-896q0 14-9 23l-320 320q-9 9-23 9-13 0-22.5-9.5T1408 768V576h-256q-48 0-87 15t-69 45q-30 30-51 61.5T900 775q-32 62-78 171-29 66-49.5 111t-54 105q-33.5 60-64 100t-74 83q-43.5 43-90 68.5t-106.5 42q-60 16.5-128 16.5H32q-14 0-23-9t-9-23v-192q0-14 9-23t23-9h224q48 0 87-15t69-45q30-30 51-61.5t45-77.5q32-62 78-171 29-66 49.5-111t54-105q33.5-60 64-100t74-83q43.5-43 90-68.5t106.5-42q60-16.5 128-16.5h256V128q0-14 9-23t23-9q12 0 24 10l319 319q9 9 9 23z"/></symbol><symbol id="next-step" viewBox="0 0 24 24"><path d="M21.7 10.2l-6.6-6c-.5-.5-1.1 0-1.1.8v3c-4.7 0-8.7 2.9-10.6 6.8-.7 1.3-1.1 2.7-1.4 4.1-.2 1 1.3 1.5 1.9.6C6.1 16 9.8 13.7 14 13.7V17c0 .8.6 1.3 1.1.8l6.6-6c.4-.4.4-1.2 0-1.6z"/></symbol><symbol id="play" viewBox="0 0 512 512"><path d="M405.2 232.9L126.8 67.2c-3.4-2-6.9-3.2-10.9-3.2-10.9 0-19.8 9-19.8 20H96v344h.1c0 11 8.9 20 19.8 20 4.1 0 7.5-1.4 11.2-3.4l278.1-165.5c6.6-5.5 10.8-13.8 10.8-23.1s-4.2-17.5-10.8-23.1z"/></symbol><symbol id="play-auto" viewBox="0 0 512 512"><path d="M197.951 64c-10.9 0-19.8 9-19.8 20h-.1v35.857l184.928 110.067c7.45 6.321 12.19 15.578 12.19 26.076a33.84 33.84 0 0 1-12.19 26.076L178.05 392.13V428h.1c0 11 8.9 20 19.8 20 4.1 0 7.5-1.4 11.2-3.4l278.1-165.5c6.6-5.5 10.8-13.8 10.8-23.1s-4.2-17.5-10.8-23.1L208.852 67.2c-3.4-2-6.9-3.2-10.9-3.2z"/><path d="M323.15 232.9L44.75 67.2c-3.4-2-6.9-3.2-10.9-3.2-10.9 0-19.8 9-19.8 20h-.1v344h.1c0 11 8.9 20 19.8 20 4.1 0 7.5-1.4 11.2-3.4l278.1-165.5c6.6-5.5 10.8-13.8 10.8-23.1s-4.2-17.5-10.8-23.1z"/></symbol><symbol id="spritesheet"/><symbol id="switch-mode" viewBox="0 0 48 48"><path d="M36 8l-8 8h6v14c0 2.21-1.79 4-4 4s-4-1.79-4-4V16c0-4.41-3.59-8-8-8s-8 3.59-8 8v14H4l8 8 8-8h-6V16c0-2.21 1.79-4 4-4s4 1.79 4 4v14c0 4.41 3.59 8 8 8s8-3.59 8-8V16h6l-8-8z"/><path d="M0 0h48v48H0z" fill="none"/></symbol></symbol></symbol></symbol></symbol></symbol></svg>