<?xml version="1.0" encoding="UTF-8"?><!DOCTYPE svg PUBLIC "-//W3C//DTD SVG 1.1//EN" "http://www.w3.org/Graphics/SVG/1.1/DTD/svg11.dtd"><svg xmlns="http://www.w3.org/2000/svg" xmlns:xlink="http://www.w3.org/1999/xlink"><defs/><symbol id="clear-all" viewBox="0 0 32 32"><path fill="none" d="M0 0h32v32H0z"/><path d="M2 26l4 4 10-10 10 10 4-4-10-10L30 6l-4-4-10 10L6 2 2 6l10 10z"/></symbol><symbol id="generate-points" viewBox="0 0 1792 1792"><path d="M666 545q-60 92-137 273-22-45-37-72.5T451.5 682q-25.5-36-51-56.5t-63-35Q300 576 256 576H32q-14 0-23-9t-9-23V352q0-14 9-23t23-9h224q250 0 410 225zm1126 799q0 14-9 23l-320 320q-9 9-23 9-13 0-22.5-9.5t-9.5-22.5v-192q-32 0-85 .5t-81 1q-28 .5-73-1t-71-5q-26-3.5-64-10.5t-63-18.5q-25-11.5-58-28.5t-59-40q-26-23-55-53.5t-56-69.5q59-93 136-273 22 45 37 72.5t40.5 63.5q25.5 36 51 56.5t63 35q37.5 14.5 81.5 14.5h256v-192q0-14 9-23t23-9q12 0 24 10l319 319q9 9 9 23zm0-896q0 14-9 23l-320 320q-9 9-23 9-13 0-22.5-9.5T1408 768V576h-256q-48 0-87 15t-69 45q-30 30-51 61.5T900 775q-32 62-78 171-29 66-49.5 111t-54 105q-33.5 60-64 100t-74 83q-43.5 43-90 68.5t-106.5 42q-60 16.5-128 16.5H32q-14 0-23-9t-9-23v-192q0-14 9-23t23-9h224q48 0 87-15t69-45q30-30 51-61.5t45-77.5q32-62 78-171 29-66 49.5-111t54-105q33.5-60 64-100t74-83q43.5-43 90-68.5t106.5-42q60-16.5 128-16.5h256V128q0-14 9-23t23-9q12 0 24 10l319 319q9 9 9 23z"/></symbol><symbol id="next-step" viewBox="0 0 24 24"><path d="M21.7 10.2l-6.6-6c-.5-.5-1.1 0-1.1.8v3c-4.7 0-8.7 2.9-10.6 6.8-.7 1.3-1.1 2.7-1.4 4.1-.2 1 1.3 1.5 1.9.6C6.1 16 9.8 13.7 14 13.7V17c0 .8.6 1.3 1.1.8l6.6-6c.4-.4.4-1.2 0-1.6z"/></symbol><symbol id="play" viewBox="0 0 512 512"><path d="M405.2 232.9L126.8 67.2c-3.4-2-6.9-3.2-10.9-3.2-10.9 0-19.8 9-19.8 20H96v344h.1c0 11 8.9 20 19.8 20 4.1 0 7.5-1.4 11.2-3.4l278.1-165.5c6.6-5.5 10.8-13.8 10.8-23.1s-4.2-17.5-10.8-23.1z"/></symbol><symbol id="play-auto" viewBox="0 0 512 512"><path d="M197.951 64c-10.9 0-19.8 9-19.8 20h-.1v35.857l184.928 110.067c7.45 6.321 12.19 15.578 12.19 26.076a33.84 33.84 0 0 1-12.19 26.076L178.05 392.13V428h.1c0 11 8.9 20 19.8 20 4.1 0 7.5-1.4 11.2-3.4l278.1-165.5c6.6-5.5 10.8-13.8 10.8-23.1s-4.2-17.5-10.8-23.1L208.852 67.2c-3.4-2-6.9-3.2-10.9-3.2z"/><path d="M323.15 232.9L44.75 67.2c-3.4-2-6.9-3.2-10.9-3.2-10.9 0-19.8 9-19.8 20h-.1v344h.1c0 11 8.9 20 19.8 20 4.1 0 7.5-1.4 11.2-3.4l278.1-165.5c6.6-5.5 10.8-13.8 10.8-23.1s-4.2-17.5-10.8-23.1z"/></symbol><symbol id="spritesheet"/><symbol id="switch-mode" viewBox="0 0 48 48"><path d="M36 8l-8 8h6v14c0 2.21-1.79 4-4 4s-4-1.79-4-4V16c0-4.41-3.59-8-8-8s-8 3.59-8 8v14H4l8 8 8-8h-6V16c0-2.21 1.79-4 4-4s4 1.79 4 4v14c0 4.41 3.59 8 8 8s8-3.59 8-8V16h6l-8-8z"/><path d="M0 0h48v48H0z" fill="none"/></symbol></svg>