<?xml version="1.0" encoding="UTF-8"?><!DOCTYPE svg PUBLIC "-//W3C//DTD SVG 1.1//EN" "http://www.w3.org/Graphics/SVG/1.1/DTD/svg11.dtd"><svg xmlns="http://www.w3.org/2000/svg" xmlns:xlink="http://www.w3.org/1999/xlink"><defs/><symbol id="cancel" viewBox="0 0 64 64"><style>.st0{fill:#134563}</style><g id="Icon-Close-O" transform="translate(378 278)"><path class="st0" d="M-345.9-222.1c-13.2 0-23.9-10.7-23.9-23.9s10.7-23.9 23.9-23.9S-322-259.2-322-246c0 13.1-10.7 23.9-23.9 23.9zm0-45.3c-11.7 0-21.3 9.6-21.3 21.3 0 11.7 9.6 21.3 21.3 21.3s21.3-9.6 21.3-21.3c0-11.7-9.6-21.3-21.3-21.3z" id="Fill-52"/><path class="st0" id="Fill-53" d="M-356.3-233.8l-1.9-1.9 22.6-22.6 1.9 1.9-22.6 22.6"/><path class="st0" id="Fill-54" d="M-335.6-233.8l-22.6-22.6 1.9-1.9 22.6 22.6-1.9 1.9"/></g></symbol></svg>