<?xml version="1.0" encoding="UTF-8"?><!DOCTYPE svg PUBLIC "-//W3C//DTD SVG 1.1//EN" "http://www.w3.org/Graphics/SVG/1.1/DTD/svg11.dtd"><svg xmlns="http://www.w3.org/2000/svg" xmlns:xlink="http://www.w3.org/1999/xlink"><defs/><symbol id="clear-all" viewBox="0 0 64 64"><path id="Fill-52" d="M32 55.9C18.8 55.9 8.1 45.2 8.1 32S18.8 8.1 32 8.1 55.9 18.8 55.9 32c0 13.1-10.7 23.9-23.9 23.9zm0-45.3c-11.7 0-21.3 9.6-21.3 21.3 0 11.7 9.6 21.3 21.3 21.3 11.7 0 21.3-9.6 21.3-21.3 0-11.7-9.6-21.3-21.3-21.3z"/><path d="M21.6 44.2l-1.9-1.9 22.6-22.6 1.9 1.9-22.6 22.6" id="Fill-53"/><path d="M42.3 44.2L19.7 21.6l1.9-1.9 22.6 22.6-1.9 1.9" id="Fill-54"/></symbol><symbol id="edit-canvas" viewBox="0 0 64 64"><path fill="none" d="M0 32h32v32H0z"/><path d="M20.263 42.06v-5.03l5.03 5.03z"/><path d="M43.737 23.616L26.97 40.383l-5.03-5.03 16.767-16.767z"/><path d="M20.263 45.414v-1.677h18.444v1.677z"/><path d="M32 55.9C18.8 55.9 8.1 45.2 8.1 32S18.8 8.1 32 8.1 55.9 18.8 55.9 32c0 13.1-10.7 23.9-23.9 23.9zm0-45.3c-11.7 0-21.3 9.6-21.3 21.3 0 11.7 9.6 21.3 21.3 21.3 11.7 0 21.3-9.6 21.3-21.3 0-11.7-9.6-21.3-21.3-21.3z" class="st0"/></symbol><symbol id="play" viewBox="0 0 64 64"><path d="M23.47 19.506l1.839-1.724L40.53 32 25.309 46.218l-1.84-1.715L36.843 32z" stroke-width=".089"/><path d="M32 55.9C18.8 55.9 8.1 45.2 8.1 32S18.8 8.1 32 8.1 55.9 18.8 55.9 32c0 13.1-10.7 23.9-23.9 23.9zm0-45.3c-11.7 0-21.3 9.6-21.3 21.3 0 11.7 9.6 21.3 21.3 21.3 11.7 0 21.3-9.6 21.3-21.3 0-11.7-9.6-21.3-21.3-21.3z" class="st0"/></symbol><symbol id="play-auto" viewBox="0 0 64 64"><path d="M32 55.9C18.8 55.9 8.1 45.2 8.1 32S18.8 8.1 32 8.1 55.9 18.8 55.9 32c0 13.1-10.7 23.9-23.9 23.9zm0-45.3c-11.7 0-21.3 9.6-21.3 21.3 0 11.7 9.6 21.3 21.3 21.3 11.7 0 21.3-9.6 21.3-21.3 0-11.7-9.6-21.3-21.3-21.3z" class="st0"/><g stroke-width=".089"><path d="M22.31 19.506l1.84-1.724L39.37 32 24.15 46.218l-1.84-1.715L35.683 32z"/><path d="M29.157 19.506l1.84-1.724L46.218 32 30.997 46.218l-1.84-1.715L42.531 32z"/></g></symbol><symbol id="spritesheet"><symbol id="clear-all" viewBox="0 0 64 64"><style id="style2">.st0{fill:#134563}</style><path id="Fill-52" d="M32 55.9C18.8 55.9 8.1 45.2 8.1 32S18.8 8.1 32 8.1 55.9 18.8 55.9 32c0 13.1-10.7 23.9-23.9 23.9zm0-45.3c-11.7 0-21.3 9.6-21.3 21.3 0 11.7 9.6 21.3 21.3 21.3 11.7 0 21.3-9.6 21.3-21.3 0-11.7-9.6-21.3-21.3-21.3z" class="st0" fill="#000"/><path d="M21.6 44.2l-1.9-1.9 22.6-22.6 1.9 1.9-22.6 22.6" id="Fill-53" class="st0" fill="#000"/><path d="M42.3 44.2L19.7 21.6l1.9-1.9 22.6 22.6-1.9 1.9" id="Fill-54" class="st0" fill="#000"/></symbol><symbol id="edit-canvas" viewBox="0 0 64 64"><path fill="none" d="M0 32h32v32H0z"/><path d="M20.263 42.06v-5.03l5.03 5.03z"/><path stroke-width=".838" stroke="#000" d="M43.737 23.616L26.97 40.383l-5.03-5.03 16.767-16.767z"/><path d="M20.263 45.414v-1.677h18.444v1.677z"/><path d="M32 55.9C18.8 55.9 8.1 45.2 8.1 32S18.8 8.1 32 8.1 55.9 18.8 55.9 32c0 13.1-10.7 23.9-23.9 23.9zm0-45.3c-11.7 0-21.3 9.6-21.3 21.3 0 11.7 9.6 21.3 21.3 21.3 11.7 0 21.3-9.6 21.3-21.3 0-11.7-9.6-21.3-21.3-21.3z" class="st0"/></symbol><symbol id="play" viewBox="0 0 64 64"><path d="M23.47 19.506l1.839-1.724L40.53 32 25.309 46.218l-1.84-1.715L36.843 32z" stroke-width=".089"/><path d="M32 55.9C18.8 55.9 8.1 45.2 8.1 32S18.8 8.1 32 8.1 55.9 18.8 55.9 32c0 13.1-10.7 23.9-23.9 23.9zm0-45.3c-11.7 0-21.3 9.6-21.3 21.3 0 11.7 9.6 21.3 21.3 21.3 11.7 0 21.3-9.6 21.3-21.3 0-11.7-9.6-21.3-21.3-21.3z" class="st0"/></symbol><symbol id="play-auto" viewBox="0 0 64 64"><path d="M32 55.9C18.8 55.9 8.1 45.2 8.1 32S18.8 8.1 32 8.1 55.9 18.8 55.9 32c0 13.1-10.7 23.9-23.9 23.9zm0-45.3c-11.7 0-21.3 9.6-21.3 21.3 0 11.7 9.6 21.3 21.3 21.3 11.7 0 21.3-9.6 21.3-21.3 0-11.7-9.6-21.3-21.3-21.3z" class="st0"/><g stroke-width=".089"><path d="M22.31 19.506l1.84-1.724L39.37 32 24.15 46.218l-1.84-1.715L35.683 32z"/><path d="M29.157 19.506l1.84-1.724L46.218 32 30.997 46.218l-1.84-1.715L42.531 32z"/></g></symbol><symbol id="spritesheet"><symbol id="clear-all"><style id="style2">.st0{fill:#134563}</style><path id="Fill-52" d="M32 55.9C18.8 55.9 8.1 45.2 8.1 32S18.8 8.1 32 8.1 55.9 18.8 55.9 32c0 13.1-10.7 23.9-23.9 23.9zm0-45.3c-11.7 0-21.3 9.6-21.3 21.3 0 11.7 9.6 21.3 21.3 21.3 11.7 0 21.3-9.6 21.3-21.3 0-11.7-9.6-21.3-21.3-21.3z" class="st0" fill="#000"/><path d="M21.6 44.2l-1.9-1.9 22.6-22.6 1.9 1.9-22.6 22.6" id="Fill-53" class="st0" fill="#000"/><path d="M42.3 44.2L19.7 21.6l1.9-1.9 22.6 22.6-1.9 1.9" id="Fill-54" class="st0" fill="#000"/></symbol><symbol id="edit-canvas"><path fill="none" d="M0 32h32v32H0z"/><path d="M20.263 42.06v-5.03l5.03 5.03z"/><path stroke-width=".838" stroke="#000" d="M43.737 23.616L26.97 40.383l-5.03-5.03 16.767-16.767z"/><path d="M20.263 45.414v-1.677h18.444v1.677z"/><path d="M32 55.9C18.8 55.9 8.1 45.2 8.1 32S18.8 8.1 32 8.1 55.9 18.8 55.9 32c0 13.1-10.7 23.9-23.9 23.9zm0-45.3c-11.7 0-21.3 9.6-21.3 21.3 0 11.7 9.6 21.3 21.3 21.3 11.7 0 21.3-9.6 21.3-21.3 0-11.7-9.6-21.3-21.3-21.3z" class="st0"/></symbol><symbol id="play"><path d="M23.47 19.506l1.839-1.724L40.53 32 25.309 46.218l-1.84-1.715L36.843 32z" stroke-width=".089"/><path d="M32 55.9C18.8 55.9 8.1 45.2 8.1 32S18.8 8.1 32 8.1 55.9 18.8 55.9 32c0 13.1-10.7 23.9-23.9 23.9zm0-45.3c-11.7 0-21.3 9.6-21.3 21.3 0 11.7 9.6 21.3 21.3 21.3 11.7 0 21.3-9.6 21.3-21.3 0-11.7-9.6-21.3-21.3-21.3z" class="st0"/></symbol><symbol id="play-auto"><path d="M32 55.9C18.8 55.9 8.1 45.2 8.1 32S18.8 8.1 32 8.1 55.9 18.8 55.9 32c0 13.1-10.7 23.9-23.9 23.9zm0-45.3c-11.7 0-21.3 9.6-21.3 21.3 0 11.7 9.6 21.3 21.3 21.3 11.7 0 21.3-9.6 21.3-21.3 0-11.7-9.6-21.3-21.3-21.3z" class="st0"/><g stroke-width=".089"><path d="M22.31 19.506l1.84-1.724L39.37 32 24.15 46.218l-1.84-1.715L35.683 32z"/><path d="M29.157 19.506l1.84-1.724L46.218 32 30.997 46.218l-1.84-1.715L42.531 32z"/></g></symbol></symbol></symbol></svg>