<?xml version="1.0" encoding="UTF-8"?><!DOCTYPE svg PUBLIC "-//W3C//DTD SVG 1.1//EN" "http://www.w3.org/Graphics/SVG/1.1/DTD/svg11.dtd"><svg xmlns="http://www.w3.org/2000/svg" xmlns:xlink="http://www.w3.org/1999/xlink"><defs/><symbol id="clear-all" viewBox="0 0 64 64"><path d="M4.963 64L0 59.037 59.037 0 64 4.963 4.963 64"/><path d="M59.037 64L0 4.963 4.963 0 64 59.037 59.037 64"/></symbol><symbol id="generate-points" viewBox="0 0 64 64"><g fill="none" stroke="#000" stroke-linecap="round" stroke-linejoin="round"><path stroke-width=".985" d="M.493.492h63.015v63.015H.493z"/><g stroke-width="1.223"><g transform="translate(-15.95 -232.713)"><circle cx="32.2" cy="245.835" r="5.638"/><circle cx="32.2" cy="264.713" r="5.638"/><circle cx="32.535" cy="283.591" r="5.638"/></g><g transform="translate(15.216 -232.713)"><circle cx="32.2" cy="245.835" r="5.638"/><circle cx="32.2" cy="264.713" r="5.638"/><circle cx="32.535" cy="283.591" r="5.638"/></g></g></g></symbol><symbol id="play" viewBox="0 0 50 64"><path d="M.003 3.88L5.393 0 50 32 5.392 64 0 60.14 39.195 32z"/></symbol><symbol id="play-auto" viewBox="0 0 64 64"><path d="M0 3.88L4.926 0l40.742 32L4.926 64 0 60.14 35.799 32z"/><path d="M18.329 3.88L23.254 0 64 32 23.254 64l-4.925-3.86L54.13 32z"/></symbol><symbol id="spritesheet"><symbol id="clear-all" viewBox="0 0 64 64"><path id="Fill-52" d="M32 55.9C18.8 55.9 8.1 45.2 8.1 32S18.8 8.1 32 8.1 55.9 18.8 55.9 32c0 13.1-10.7 23.9-23.9 23.9zm0-45.3c-11.7 0-21.3 9.6-21.3 21.3 0 11.7 9.6 21.3 21.3 21.3 11.7 0 21.3-9.6 21.3-21.3 0-11.7-9.6-21.3-21.3-21.3z"/><path d="M21.6 44.2l-1.9-1.9 22.6-22.6 1.9 1.9-22.6 22.6" id="Fill-53"/><path d="M42.3 44.2L19.7 21.6l1.9-1.9 22.6 22.6-1.9 1.9" id="Fill-54"/></symbol><symbol id="edit-canvas" viewBox="0 0 64 64"><path fill="none" d="M0 32h32v32H0z"/><path d="M20.263 42.06v-5.03l5.03 5.03zM43.737 23.616L26.97 40.383l-5.03-5.03 16.767-16.767zM20.263 45.414v-1.677h18.444v1.677z"/><path d="M32 55.9C18.8 55.9 8.1 45.2 8.1 32S18.8 8.1 32 8.1 55.9 18.8 55.9 32c0 13.1-10.7 23.9-23.9 23.9zm0-45.3c-11.7 0-21.3 9.6-21.3 21.3 0 11.7 9.6 21.3 21.3 21.3 11.7 0 21.3-9.6 21.3-21.3 0-11.7-9.6-21.3-21.3-21.3z" class="st0"/></symbol><symbol id="play" viewBox="0 0 64 64"><path d="M23.47 19.506l1.839-1.724L40.53 32 25.309 46.218l-1.84-1.715L36.843 32z" stroke-width=".089"/><path d="M32 55.9C18.8 55.9 8.1 45.2 8.1 32S18.8 8.1 32 8.1 55.9 18.8 55.9 32c0 13.1-10.7 23.9-23.9 23.9zm0-45.3c-11.7 0-21.3 9.6-21.3 21.3 0 11.7 9.6 21.3 21.3 21.3 11.7 0 21.3-9.6 21.3-21.3 0-11.7-9.6-21.3-21.3-21.3z" class="st0"/></symbol><symbol id="play-auto" viewBox="0 0 64 64"><path d="M32 55.9C18.8 55.9 8.1 45.2 8.1 32S18.8 8.1 32 8.1 55.9 18.8 55.9 32c0 13.1-10.7 23.9-23.9 23.9zm0-45.3c-11.7 0-21.3 9.6-21.3 21.3 0 11.7 9.6 21.3 21.3 21.3 11.7 0 21.3-9.6 21.3-21.3 0-11.7-9.6-21.3-21.3-21.3z" class="st0"/><g stroke-width=".089"><path d="M22.31 19.506l1.84-1.724L39.37 32 24.15 46.218l-1.84-1.715L35.683 32z"/><path d="M29.157 19.506l1.84-1.724L46.218 32 30.997 46.218l-1.84-1.715L42.531 32z"/></g></symbol><symbol id="spritesheet"><symbol id="edit-canvas" viewBox="0 0 64 64"><path fill="none" d="M0 32h32v32H0z"/><path d="M20.263 42.06v-5.03l5.03 5.03z"/><path stroke-width=".838" stroke="#000" d="M43.737 23.616L26.97 40.383l-5.03-5.03 16.767-16.767z"/><path d="M20.263 45.414v-1.677h18.444v1.677z"/><path d="M32 55.9C18.8 55.9 8.1 45.2 8.1 32S18.8 8.1 32 8.1 55.9 18.8 55.9 32c0 13.1-10.7 23.9-23.9 23.9zm0-45.3c-11.7 0-21.3 9.6-21.3 21.3 0 11.7 9.6 21.3 21.3 21.3 11.7 0 21.3-9.6 21.3-21.3 0-11.7-9.6-21.3-21.3-21.3z" class="st0"/></symbol><symbol id="play" viewBox="0 0 64 64"><path d="M23.47 19.506l1.839-1.724L40.53 32 25.309 46.218l-1.84-1.715L36.843 32z" stroke-width=".089"/><path d="M32 55.9C18.8 55.9 8.1 45.2 8.1 32S18.8 8.1 32 8.1 55.9 18.8 55.9 32c0 13.1-10.7 23.9-23.9 23.9zm0-45.3c-11.7 0-21.3 9.6-21.3 21.3 0 11.7 9.6 21.3 21.3 21.3 11.7 0 21.3-9.6 21.3-21.3 0-11.7-9.6-21.3-21.3-21.3z" class="st0"/></symbol><symbol id="play-auto" viewBox="0 0 64 64"><path d="M32 55.9C18.8 55.9 8.1 45.2 8.1 32S18.8 8.1 32 8.1 55.9 18.8 55.9 32c0 13.1-10.7 23.9-23.9 23.9zm0-45.3c-11.7 0-21.3 9.6-21.3 21.3 0 11.7 9.6 21.3 21.3 21.3 11.7 0 21.3-9.6 21.3-21.3 0-11.7-9.6-21.3-21.3-21.3z" class="st0"/><g stroke-width=".089"><path d="M22.31 19.506l1.84-1.724L39.37 32 24.15 46.218l-1.84-1.715L35.683 32z"/><path d="M29.157 19.506l1.84-1.724L46.218 32 30.997 46.218l-1.84-1.715L42.531 32z"/></g></symbol><symbol id="spritesheet"><symbol id="clear-all"><style id="style2">.st0{fill:#134563}</style><path id="Fill-52" d="M32 55.9C18.8 55.9 8.1 45.2 8.1 32S18.8 8.1 32 8.1 55.9 18.8 55.9 32c0 13.1-10.7 23.9-23.9 23.9zm0-45.3c-11.7 0-21.3 9.6-21.3 21.3 0 11.7 9.6 21.3 21.3 21.3 11.7 0 21.3-9.6 21.3-21.3 0-11.7-9.6-21.3-21.3-21.3z" class="st0" fill="#000"/><path d="M21.6 44.2l-1.9-1.9 22.6-22.6 1.9 1.9-22.6 22.6" id="Fill-53" class="st0" fill="#000"/><path d="M42.3 44.2L19.7 21.6l1.9-1.9 22.6 22.6-1.9 1.9" id="Fill-54" class="st0" fill="#000"/></symbol><symbol id="edit-canvas"><path fill="none" d="M0 32h32v32H0z"/><path d="M20.263 42.06v-5.03l5.03 5.03z"/><path stroke-width=".838" stroke="#000" d="M43.737 23.616L26.97 40.383l-5.03-5.03 16.767-16.767z"/><path d="M20.263 45.414v-1.677h18.444v1.677z"/><path d="M32 55.9C18.8 55.9 8.1 45.2 8.1 32S18.8 8.1 32 8.1 55.9 18.8 55.9 32c0 13.1-10.7 23.9-23.9 23.9zm0-45.3c-11.7 0-21.3 9.6-21.3 21.3 0 11.7 9.6 21.3 21.3 21.3 11.7 0 21.3-9.6 21.3-21.3 0-11.7-9.6-21.3-21.3-21.3z" class="st0"/></symbol><symbol id="play"><path d="M23.47 19.506l1.839-1.724L40.53 32 25.309 46.218l-1.84-1.715L36.843 32z" stroke-width=".089"/><path d="M32 55.9C18.8 55.9 8.1 45.2 8.1 32S18.8 8.1 32 8.1 55.9 18.8 55.9 32c0 13.1-10.7 23.9-23.9 23.9zm0-45.3c-11.7 0-21.3 9.6-21.3 21.3 0 11.7 9.6 21.3 21.3 21.3 11.7 0 21.3-9.6 21.3-21.3 0-11.7-9.6-21.3-21.3-21.3z" class="st0"/></symbol><symbol id="play-auto"><path d="M32 55.9C18.8 55.9 8.1 45.2 8.1 32S18.8 8.1 32 8.1 55.9 18.8 55.9 32c0 13.1-10.7 23.9-23.9 23.9zm0-45.3c-11.7 0-21.3 9.6-21.3 21.3 0 11.7 9.6 21.3 21.3 21.3 11.7 0 21.3-9.6 21.3-21.3 0-11.7-9.6-21.3-21.3-21.3z" class="st0"/><g stroke-width=".089"><path d="M22.31 19.506l1.84-1.724L39.37 32 24.15 46.218l-1.84-1.715L35.683 32z"/><path d="M29.157 19.506l1.84-1.724L46.218 32 30.997 46.218l-1.84-1.715L42.531 32z"/></g></symbol></symbol></symbol></symbol></svg>